<svg width="40" height="40" viewBox="0 0 40 40" fill="none" xmlns="http://www.w3.org/2000/svg">
<rect x="0.5" y="0.5" width="39" height="39" rx="19.5" stroke="#898F8F"/>
<path fill-rule="evenodd" clip-rule="evenodd" d="M10 15.5556C10 14.0821 10.5853 12.6691 11.6272 11.6272C12.6691 10.5853 14.0821 10 15.5556 10H24.4444C25.9179 10 27.3309 10.5853 28.3728 11.6272C29.4147 12.6691 30 14.0821 30 15.5556V24.4444C30 25.9179 29.4147 27.3309 28.3728 28.3728C27.3309 29.4147 25.9179 30 24.4444 30H15.5556C14.0821 30 12.6691 29.4147 11.6272 28.3728C10.5853 27.3309 10 25.9179 10 24.4444V15.5556ZM15.5556 12.2222C14.6715 12.2222 13.8237 12.5734 13.1985 13.1985C12.5734 13.8237 12.2222 14.6715 12.2222 15.5556V24.4444C12.2222 25.3285 12.5734 26.1763 13.1985 26.8015C13.8237 27.4266 14.6715 27.7778 15.5556 27.7778H24.4444C25.3285 27.7778 26.1763 27.4266 26.8015 26.8015C27.4266 26.1763 27.7778 25.3285 27.7778 24.4444V15.5556C27.7778 14.6715 27.4266 13.8237 26.8015 13.1985C26.1763 12.5734 25.3285 12.2222 24.4444 12.2222H15.5556ZM23.9967 14.6822C23.9967 14.3875 24.1137 14.1049 24.3221 13.8965C24.5305 13.6882 24.8131 13.5711 25.1078 13.5711H25.1189C25.4136 13.5711 25.6962 13.6882 25.9046 13.8965C26.1129 14.1049 26.23 14.3875 26.23 14.6822C26.23 14.9769 26.1129 15.2595 25.9046 15.4679C25.6962 15.6763 25.4136 15.7933 25.1189 15.7933H25.1078C24.8131 15.7933 24.5305 15.6763 24.3221 15.4679C24.1137 15.2595 23.9967 14.9769 23.9967 14.6822ZM20 16.6667C19.1159 16.6667 18.2681 17.0179 17.643 17.643C17.0179 18.2681 16.6667 19.1159 16.6667 20C16.6667 20.8841 17.0179 21.7319 17.643 22.357C18.2681 22.9821 19.1159 23.3333 20 23.3333C20.8841 23.3333 21.7319 22.9821 22.357 22.357C22.9821 21.7319 23.3333 20.8841 23.3333 20C23.3333 19.1159 22.9821 18.2681 22.357 17.643C21.7319 17.0179 20.8841 16.6667 20 16.6667ZM14.4444 20C14.4444 18.5266 15.0298 17.1135 16.0716 16.0716C17.1135 15.0298 18.5266 14.4444 20 14.4444C21.4734 14.4444 22.8865 15.0298 23.9284 16.0716C24.9702 17.1135 25.5556 18.5266 25.5556 20C25.5556 21.4734 24.9702 22.8865 23.9284 23.9284C22.8865 24.9702 21.4734 25.5556 20 25.5556C18.5266 25.5556 17.1135 24.9702 16.0716 23.9284C15.0298 22.8865 14.4444 21.4734 14.4444 20Z" fill="#898F8F"/>
</svg>
