<svg width="40" height="40" viewBox="0 0 40 40" fill="none" xmlns="http://www.w3.org/2000/svg">
<rect x="0.5" y="0.5" width="39" height="39" rx="19.5" stroke="#898F8F"/>
<path d="M14.4769 30H10.3304V16.647H14.4769V30ZM12.4014 14.8256C11.0755 14.8256 10 13.7273 10 12.4014C10 11.7645 10.253 11.1537 10.7034 10.7034C11.1537 10.253 11.7645 10 12.4014 10C13.0383 10 13.6491 10.253 14.0994 10.7034C14.5498 11.1537 14.8028 11.7645 14.8028 12.4014C14.8028 13.7273 13.7269 14.8256 12.4014 14.8256ZM29.996 30H25.8584V23.4999C25.8584 21.9507 25.8271 19.9641 23.7025 19.9641C21.5467 19.9641 21.2163 21.6471 21.2163 23.3882V30H17.0743V16.647H21.0511V18.4685H21.1092C21.6628 17.4194 23.015 16.3122 25.0325 16.3122C29.229 16.3122 30.0004 19.0756 30.0004 22.665V30H29.996Z" fill="#898F8F"/>
</svg>
